<svg width="290" height="200" viewBox="0 0 290 200" fill="none" xmlns="http://www.w3.org/2000/svg">
<path d="M278 32C278 20.9543 269.046 12 258 12H104.326C99.2055 12 94.2797 13.9644 90.564 17.4883L18.3973 85.9307C10.0464 93.8506 10.0865 107.167 18.4848 115.037L90.5819 182.594C94.2884 186.067 99.1775 188 104.257 188H258C269.046 188 278 179.046 278 168V32Z" fill="#0A3871"/>
<path d="M215.001 70L185.004 100.397M185.004 100.397L156.157 129.629M185.004 100.397L155.372 71.1554M185.004 100.397L215.001 130M18.3973 85.9307L90.564 17.4883C94.2797 13.9644 99.2055 12 104.326 12H258C269.046 12 278 20.9543 278 32V168C278 179.046 269.046 188 258 188H104.257C99.1775 188 94.2884 186.067 90.5819 182.594L18.4848 115.037C10.0865 107.167 10.0464 93.8506 18.3973 85.9307Z" stroke="white" stroke-width="23" stroke-linecap="round"/>
</svg>
